<svg xmlns="http://www.w3.org/2000/svg" viewBox="0 0 500 500"><g id="freepik--background-complete--inject-5"><rect x="61.66" y="75.3" width="26.48" height="11.19" transform="translate(149.8 161.79) rotate(180)" style="fill:#ebebeb"></rect><path d="M76.43,61.19l13.13-.28,6.66-.11c2.22,0,4.46,0,6.69-.06h.45v.45l0,11.19v.5h-.5l-13.24-.06c-4.41,0-8.82-.12-13.24-.17h-.27v-.27c0-1.9.09-3.79.13-5.65Zm0,0,.14,5.65c.05,1.87.12,3.71.14,5.54l-.28-.27c4.42,0,8.83-.16,13.24-.17l13.24-.06-.5.5.06-11.19.44.45c-2.18,0-4.35,0-6.54-.06l-6.58-.11Z" style="fill:#ebebeb"></path><path d="M46.89,61.19,60,60.91l6.66-.11c2.23,0,4.47,0,6.7-.06h.44v.45l.05,11.19v.5h-.5l-13.24-.06c-4.41,0-8.83-.12-13.24-.17h-.28v-.27c0-1.9.08-3.79.13-5.65Zm0,0L47,66.84c0,1.87.11,3.71.13,5.54l-.27-.27c4.41,0,8.83-.16,13.24-.17l13.24-.06-.5.5,0-11.19.45.45c-2.18,0-4.36,0-6.55-.06l-6.58-.11Z" style="fill:#ebebeb"></path><path d="M217.05,213.66l13.12-.27,6.66-.12c2.23,0,4.47,0,6.7-.05H244v.44l.06,11.19v.51h-.5l-13.24-.06c-4.42,0-8.83-.11-13.24-.16h-.28v-.27c0-1.89.09-3.78.14-5.65Zm0,0,.14,5.66c0,1.86.11,3.7.13,5.53l-.27-.27c4.41-.05,8.82-.16,13.24-.16l13.24-.06-.5.49.05-11.19.45.45c-2.18,0-4.36,0-6.55-.05l-6.58-.12Z" style="fill:#ebebeb"></path><rect x="231.82" y="199.55" width="26.48" height="11.19" transform="translate(490.12 410.3) rotate(180)" style="fill:#ebebeb"></rect><path d="M202.28,199.55l13.12-.27,6.66-.12c2.23,0,4.46,0,6.7,0h.44v.44l.06,11.19v.51h-.5l-13.24-.06c-4.42,0-8.83-.11-13.24-.16H202v-.27c0-1.89.09-3.78.13-5.65Zm0,0,.14,5.66c0,1.86.11,3.7.13,5.53l-.27-.27c4.41-.05,8.82-.16,13.24-.16l13.24-.06-.5.49.05-11.19.45.45c-2.19,0-4.36,0-6.55-.05l-6.58-.12Z" style="fill:#ebebeb"></path><path d="M414.59,71.37l13.12-.28,6.66-.11c2.23,0,4.47,0,6.7,0h.44v.45l.06,11.19v.5h-.5L427.83,83c-4.41,0-8.83-.12-13.24-.17h-.28v-.27c0-1.9.08-3.79.13-5.65Zm0,0,.14,5.65c0,1.87.11,3.71.13,5.54l-.27-.27c4.41-.05,8.83-.16,13.24-.17l13.24-.06-.5.5.05-11.19.45.45c-2.18,0-4.36,0-6.55-.06l-6.58-.11Z" style="fill:#ebebeb"></path><path d="M285,360.67l13.12-.28,6.66-.11c2.23,0,4.46,0,6.7-.06h.44v.45l.06,11.19v.5h-.5l-13.24-.07c-4.42,0-8.83-.11-13.24-.16h-.28v-.27c0-1.9.09-3.79.13-5.66Zm0,0,.14,5.65c0,1.86.11,3.71.13,5.54l-.27-.28c4.41-.05,8.82-.15,13.24-.16l13.24-.06-.5.5.05-11.19.45.44c-2.19,0-4.36,0-6.55-.05L298.3,361Z" style="fill:#ebebeb"></path><path d="M63.19,405.85l13.13-.28,6.66-.11c2.22,0,4.46,0,6.69,0h.45v.45l0,11.19v.5h-.5l-13.24-.06c-4.41,0-8.82-.11-13.24-.17h-.27V417c0-1.9.09-3.78.13-5.65Zm0,0,.14,5.66c.05,1.86.12,3.7.14,5.53l-.28-.27c4.42,0,8.83-.16,13.24-.16l13.24-.07-.5.5.06-11.19.44.45c-2.18,0-4.36,0-6.54-.06l-6.58-.11Z" style="fill:#ebebeb"></path><rect x="48.42" y="391.74" width="26.48" height="11.19" transform="translate(123.32 794.67) rotate(180)" style="fill:#ebebeb"></rect><rect x="426.63" y="405.84" width="26.48" height="11.19" transform="translate(879.74 822.87) rotate(180)" style="fill:#ebebeb"></rect><rect x="302.45" y="52.46" width="125.51" height="165.23" style="fill:#ebebeb"></rect><rect x="320.01" y="70.02" width="90.39" height="130.11" style="fill:#fff"></rect><g style="opacity:0.2"><polygon points="387.31 70.02 320.01 137.33 320.01 104.73 354.72 70.02 387.31 70.02" style="fill:#ebebeb"></polygon><polygon points="410.4 132.84 410.4 165.44 375.71 200.13 343.12 200.13 410.4 132.84" style="fill:#ebebeb"></polygon><polygon points="410.4 174.81 410.4 191.11 401.38 200.13 385.09 200.13 410.4 174.81" style="fill:#ebebeb"></polygon><polygon points="350.23 70.02 320.01 100.24 320.01 95.61 345.59 70.02 350.23 70.02" style="fill:#ebebeb"></polygon><polygon points="410.4 88.36 410.4 93 320.01 183.38 320.01 178.76 410.4 88.36" style="fill:#ebebeb"></polygon></g><path d="M314.46,61.34a3.4,3.4,0,1,1-3.4-3.4A3.4,3.4,0,0,1,314.46,61.34Z" style="fill:#fff"></path><path d="M332.22,61.34a3.41,3.41,0,1,1-3.4-3.4A3.4,3.4,0,0,1,332.22,61.34Z" style="fill:#fff"></path><path d="M350,61.34a3.41,3.41,0,1,1-3.4-3.4A3.4,3.4,0,0,1,350,61.34Z" style="fill:#fff"></path><path d="M367.74,61.34a3.41,3.41,0,1,1-3.41-3.4A3.41,3.41,0,0,1,367.74,61.34Z" style="fill:#fff"></path><path d="M385.49,61.34a3.4,3.4,0,1,1-3.4-3.4A3.4,3.4,0,0,1,385.49,61.34Z" style="fill:#fff"></path><path d="M403.25,61.34a3.4,3.4,0,1,1-3.4-3.4A3.4,3.4,0,0,1,403.25,61.34Z" style="fill:#fff"></path><path d="M332.22,208.8a3.41,3.41,0,1,1-3.4-3.4A3.4,3.4,0,0,1,332.22,208.8Z" style="fill:#fff"></path><path d="M350,208.8a3.41,3.41,0,1,1-3.4-3.4A3.4,3.4,0,0,1,350,208.8Z" style="fill:#fff"></path><path d="M367.74,208.8a3.41,3.41,0,1,1-3.41-3.4A3.41,3.41,0,0,1,367.74,208.8Z" style="fill:#fff"></path><path d="M385.49,208.8a3.4,3.4,0,1,1-3.4-3.4A3.4,3.4,0,0,1,385.49,208.8Z" style="fill:#fff"></path><path d="M403.25,208.8a3.4,3.4,0,1,1-3.4-3.4A3.4,3.4,0,0,1,403.25,208.8Z" style="fill:#fff"></path><path d="M314.46,79.77a3.4,3.4,0,1,1-3.4-3.4A3.4,3.4,0,0,1,314.46,79.77Z" style="fill:#fff"></path><path d="M314.46,98.21a3.4,3.4,0,1,1-3.4-3.4A3.41,3.41,0,0,1,314.46,98.21Z" style="fill:#fff"></path><path d="M314.46,116.64a3.4,3.4,0,1,1-3.4-3.4A3.4,3.4,0,0,1,314.46,116.64Z" style="fill:#fff"></path><path d="M314.46,135.07a3.4,3.4,0,1,1-3.4-3.4A3.4,3.4,0,0,1,314.46,135.07Z" style="fill:#fff"></path><path d="M314.46,153.51a3.4,3.4,0,1,1-3.4-3.4A3.41,3.41,0,0,1,314.46,153.51Z" style="fill:#fff"></path><path d="M314.46,171.94a3.4,3.4,0,1,1-3.4-3.4A3.4,3.4,0,0,1,314.46,171.94Z" style="fill:#fff"></path><path d="M314.46,190.37a3.4,3.4,0,1,1-3.4-3.4A3.4,3.4,0,0,1,314.46,190.37Z" style="fill:#fff"></path><path d="M314.46,208.8a3.4,3.4,0,1,1-3.4-3.4A3.4,3.4,0,0,1,314.46,208.8Z" style="fill:#fff"></path><path d="M422.76,61.34a3.4,3.4,0,1,1-3.4-3.4A3.4,3.4,0,0,1,422.76,61.34Z" style="fill:#fff"></path><path d="M422.76,79.77a3.4,3.4,0,1,1-3.4-3.4A3.4,3.4,0,0,1,422.76,79.77Z" style="fill:#fff"></path><path d="M422.76,98.21a3.4,3.4,0,1,1-3.4-3.4A3.4,3.4,0,0,1,422.76,98.21Z" style="fill:#fff"></path><path d="M422.76,116.64a3.4,3.4,0,1,1-3.4-3.4A3.4,3.4,0,0,1,422.76,116.64Z" style="fill:#fff"></path><path d="M422.76,135.07a3.4,3.4,0,1,1-3.4-3.4A3.4,3.4,0,0,1,422.76,135.07Z" style="fill:#fff"></path><path d="M422.76,153.51a3.4,3.4,0,1,1-3.4-3.4A3.4,3.4,0,0,1,422.76,153.51Z" style="fill:#fff"></path><path d="M422.76,171.94a3.4,3.4,0,1,1-3.4-3.4A3.4,3.4,0,0,1,422.76,171.94Z" style="fill:#fff"></path><path d="M422.76,190.37a3.4,3.4,0,1,1-3.4-3.4A3.4,3.4,0,0,1,422.76,190.37Z" style="fill:#fff"></path><path d="M422.76,208.8a3.4,3.4,0,1,1-3.4-3.4A3.4,3.4,0,0,1,422.76,208.8Z" style="fill:#fff"></path><rect x="72.04" y="52.46" width="125.51" height="165.23" style="fill:#ebebeb"></rect><rect x="89.6" y="70.02" width="90.39" height="130.11" style="fill:#fff"></rect><path d="M84,61.34a3.4,3.4,0,1,1-3.4-3.4A3.4,3.4,0,0,1,84,61.34Z" style="fill:#fff"></path><path d="M101.8,61.34a3.4,3.4,0,1,1-3.4-3.4A3.4,3.4,0,0,1,101.8,61.34Z" style="fill:#fff"></path><path d="M119.56,61.34a3.4,3.4,0,1,1-3.4-3.4A3.4,3.4,0,0,1,119.56,61.34Z" style="fill:#fff"></path><path d="M137.32,61.34a3.4,3.4,0,1,1-3.4-3.4A3.4,3.4,0,0,1,137.32,61.34Z" style="fill:#fff"></path><path d="M155.08,61.34a3.4,3.4,0,1,1-3.4-3.4A3.4,3.4,0,0,1,155.08,61.34Z" style="fill:#fff"></path><path d="M172.84,61.34a3.4,3.4,0,1,1-3.4-3.4A3.4,3.4,0,0,1,172.84,61.34Z" style="fill:#fff"></path><path d="M101.8,208.8a3.4,3.4,0,1,1-3.4-3.4A3.4,3.4,0,0,1,101.8,208.8Z" style="fill:#fff"></path><path d="M119.56,208.8a3.4,3.4,0,1,1-3.4-3.4A3.4,3.4,0,0,1,119.56,208.8Z" style="fill:#fff"></path><path d="M137.32,208.8a3.4,3.4,0,1,1-3.4-3.4A3.4,3.4,0,0,1,137.32,208.8Z" style="fill:#fff"></path><path d="M155.08,208.8a3.4,3.4,0,1,1-3.4-3.4A3.4,3.4,0,0,1,155.08,208.8Z" style="fill:#fff"></path><path d="M172.84,208.8a3.4,3.4,0,1,1-3.4-3.4A3.4,3.4,0,0,1,172.84,208.8Z" style="fill:#fff"></path><circle cx="80.64" cy="79.77" r="3.4" style="fill:#fff"></circle><circle cx="80.64" cy="98.21" r="3.4" style="fill:#fff"></circle><circle cx="80.64" cy="116.64" r="3.4" style="fill:#fff"></circle><circle cx="80.64" cy="135.07" r="3.4" style="fill:#fff"></circle><circle cx="80.64" cy="153.51" r="3.4" style="fill:#fff"></circle><circle cx="80.64" cy="171.94" r="3.4" style="fill:#fff"></circle><path d="M84,190.37a3.4,3.4,0,1,1-3.4-3.4A3.4,3.4,0,0,1,84,190.37Z" style="fill:#fff"></path><path d="M84,208.8a3.4,3.4,0,1,1-3.4-3.4A3.4,3.4,0,0,1,84,208.8Z" style="fill:#fff"></path><path d="M192.35,61.34a3.41,3.41,0,1,1-3.41-3.4A3.41,3.41,0,0,1,192.35,61.34Z" style="fill:#fff"></path><circle cx="188.94" cy="79.77" r="3.4" style="fill:#fff"></circle><circle cx="188.94" cy="98.21" r="3.4" style="fill:#fff"></circle><circle cx="188.94" cy="116.64" r="3.4" style="fill:#fff"></circle><circle cx="188.94" cy="135.07" r="3.4" style="fill:#fff"></circle><circle cx="188.94" cy="153.51" r="3.4" style="fill:#fff"></circle><circle cx="188.94" cy="171.94" r="3.4" style="fill:#fff"></circle><path d="M192.35,190.37a3.41,3.41,0,1,1-3.41-3.4A3.41,3.41,0,0,1,192.35,190.37Z" style="fill:#fff"></path><path d="M192.35,208.8a3.41,3.41,0,1,1-3.41-3.4A3.41,3.41,0,0,1,192.35,208.8Z" style="fill:#fff"></path><g style="opacity:0.2"><polygon points="179.99 70.02 179.99 81.57 89.6 171.97 89.6 139.37 158.96 70.02 179.99 70.02" style="fill:#ebebeb"></polygon><polygon points="179.99 179.73 179.99 200.13 159.6 200.13 179.99 179.73" style="fill:#ebebeb"></polygon><polygon points="179.99 89.8 179.99 106.1 89.6 196.5 89.6 180.2 179.99 89.8" style="fill:#ebebeb"></polygon><polygon points="122.2 70.02 89.6 102.62 89.6 97.99 117.57 70.02 122.2 70.02" style="fill:#ebebeb"></polygon></g></g><g id="freepik--Makeup--inject-5"><polygon points="375.17 280.24 370.23 281.16 362.58 245.32 369.33 244.05 375.17 280.24" style="fill:#FFC727"></polygon><polygon points="369.33 244.05 362.58 245.32 359.97 236.33 368.52 234.73 369.33 244.05" style="fill:#ebebeb"></polygon><path d="M370.53,223.88c.64,2.21-2,10.86-2,10.86l-8.55,1.6s-5.6-7.11-5.79-9.4,1.48-3.23,7.64-4.38S369.88,221.67,370.53,223.88Z" style="fill:#263238"></path><polygon points="384.46 282.38 381.28 282.08 383.85 245.52 388.86 245.99 384.46 282.38" style="fill:#FFC727"></polygon><polygon points="388.86 245.99 383.85 245.52 383.82 236.16 390.66 236.81 388.86 245.99" style="fill:#ebebeb"></polygon><polygon points="383.82 236.16 382.94 226.68 393.34 225.83 390.66 236.81 383.82 236.16" style="fill:#263238"></polygon><polygon points="377.58 272.09 374.38 272.09 373.46 235.45 378.5 235.45 377.58 272.09" style="fill:#FFC727"></polygon><polygon points="378.5 235.45 373.46 235.45 372.54 226.13 379.41 226.13 378.5 235.45" style="fill:#ebebeb"></polygon><path d="M379.41,226.14h-6.87C372,220.79,373.43,216,376,216S379.94,220.79,379.41,226.14Z" style="fill:#263238"></path><rect x="363.53" y="255.06" width="25.49" height="34.2" style="fill:#455a64"></rect><circle cx="411.36" cy="266.36" r="17.73" transform="translate(-67.86 368.89) rotate(-45)" style="fill:#263238"></circle><path d="M425.17,266.36a13.81,13.81,0,1,1-13.81-13.81A13.81,13.81,0,0,1,425.17,266.36Z" style="fill:#fff"></path><rect x="393.2" y="282.94" width="35.89" height="6.32" style="fill:#263238"></rect><path d="M425.17,266.36a13.8,13.8,0,0,1-.93,5l-7.87,7.87a13.73,13.73,0,0,1-8.7.43l17-17A14,14,0,0,1,425.17,266.36Z" style="fill:#ebebeb"></path><path d="M415.1,253.07l-17,17a14,14,0,0,1-.51-3.75,13.65,13.65,0,0,1,.91-4.92l8-8a13.7,13.7,0,0,1,4.93-.91A13.52,13.52,0,0,1,415.1,253.07Z" style="fill:#ebebeb"></path><path d="M421.4,256.88l-19.52,19.51a12.69,12.69,0,0,1-1.62-1.81l19.32-19.32A14,14,0,0,1,421.4,256.88Z" style="fill:#ebebeb"></path><path d="M423.45,259.68l-18.77,18.76a9.72,9.72,0,0,1-1.06-.65l19.18-19.17C423,259,423.24,259.31,423.45,259.68Z" style="fill:#ebebeb"></path></g><g id="freepik--Floor--inject-5"><polygon points="47.44 454.24 98.08 454 148.72 453.91 250 453.74 351.28 453.91 401.92 454 452.56 454.24 401.92 454.48 351.28 454.57 250 454.74 148.72 454.57 98.08 454.48 47.44 454.24" style="fill:#263238"></polygon></g><g id="freepik--Plant--inject-5"><path d="M94.46,345.55a43.11,43.11,0,0,1-.83,16.51,45.66,45.66,0,0,1-2.53,7.3c-1.32,3-2.69,6-2.36,9.27.32.22-.77.18-.81-.14-8.83-5-20.16-5.95-27-14.17-3.22-3.9-4.84-8.83-5.61-13.77-.84-5.37-1.07-11.32.31-16.62,1.17-4.48,3.79-8.8,8-11s10-2.07,14.62-.65C88.16,325.35,93.07,336,94.46,345.55Z" style="fill:#FFC727"></path><path d="M99,410.94c-1.21-4-2.41-8-3.65-12.05-2.42-7.85-4.94-15.67-7.73-23.4q-2.5-6.94-5.29-13.76a85.79,85.79,0,0,1,1-8.54c.74-3.42,1.81-6.73,2.81-10.08.07-.21-.27-.31-.35-.12-2,4.62-4.57,10.53-4.64,16-2.16-5.14-4.46-10.21-6.94-15.2a64.66,64.66,0,0,1,.39-12.66.15.15,0,0,0-.3-.06,44.89,44.89,0,0,0-.86,11.18c-1.9-3.75-3.9-7.46-6-11.1-.19-.33-.65,0-.48.33,3.32,6.39,6.4,12.92,9.29,19.53a42.38,42.38,0,0,0-13.85-8c-.22-.08-.39.24-.16.33a50.59,50.59,0,0,1,15,9.92q3.11,7.26,5.93,14.64c-5.52-5.42-13.09-9-20.4-10.89-.25-.07-.32.31-.08.39,8.47,2.55,15,7.35,21.48,13.11q1.13,3,2.21,6,4.08,11.36,7.79,22.85,1.78,5.51,3.51,11c1.23,4,2.2,8.14,3.81,12,.15.37.81.29.72-.15A112.87,112.87,0,0,0,99,410.94Z" style="fill:#263238"></path><path d="M84.34,337.81a22,22,0,0,0-3.18,7.93c0,.08.1.12.13.05A65.94,65.94,0,0,1,84.74,338C84.87,337.75,84.49,337.59,84.34,337.81Z" style="fill:#263238"></path><path d="M68.59,356.22a23.32,23.32,0,0,0-7.93-2.67c-.07,0-.12.1,0,.13,1.27.53,2.61.9,3.9,1.39s2.56,1.1,3.87,1.56A.23.23,0,0,0,68.59,356.22Z" style="fill:#263238"></path><path d="M64.15,334.08a16.11,16.11,0,0,0-2.55-1.58.14.14,0,0,0-.15.23A16.11,16.11,0,0,0,64,334.36C64.12,334.46,64.31,334.18,64.15,334.08Z" style="fill:#263238"></path><path d="M124.24,375.55c-6.36,1.89-12.75,3.63-19.12,5.5-.55.17-11.3-20.44-7.42-31.06,3.6-9.83,11.82-17.18,21.63-20.52,4.54-1.54,10.13-2.84,14.92-1.78,4.27.94,7.28,4.44,8.67,8.45,1.89,5.45,1.26,12,.23,17.53a30.5,30.5,0,0,1-6.26,14.3C133.51,372,129.2,374.08,124.24,375.55Z" style="fill:#FFC727"></path><path d="M133.47,356A83.56,83.56,0,0,1,121,360.87a53,53,0,0,0-8.33,3c2.69-6,5.64-11.86,8.77-17.67,4.11-1.19,8.43-3,11.53-6a.18.18,0,0,0-.23-.27c-3.39,2.4-7.13,3.83-10.88,5.45.85-1.56,1.7-3.12,2.57-4.68a.39.39,0,0,0-.65-.44,135.62,135.62,0,0,0-9,15.18,69.47,69.47,0,0,1-.65-13.91.09.09,0,1,0-.18,0,46.37,46.37,0,0,0,.15,15.28c-2.23,4.45-4.26,9-6.09,13.64-.72-2.78-1.67-5.51-2.3-8.31a38.26,38.26,0,0,1-.91-12.25.09.09,0,1,0-.18,0,43.18,43.18,0,0,0,2.66,22.48c-1.06,2.78-2.07,5.57-3,8.37a166.92,166.92,0,0,0-8.45,44.14.27.27,0,0,0,.54,0,219,219,0,0,1,9.48-43.62c1.85-5.55,4-10.93,6.3-16.22,3.76-1.11,7.5-2.62,11.19-3.89a35,35,0,0,0,10.32-5.06C133.73,356.09,133.6,355.9,133.47,356Z" style="fill:#263238"></path><path d="M139.4,350c-3.89,1.38-7.58,3.32-11.47,4.72-.18.07-.07.35.11.32,4.11-.85,8.19-2.12,11.51-4.82C139.67,350.09,139.53,349.93,139.4,350Z" style="fill:#263238"></path><path d="M107.63,341.58c0-.21-.26-.32-.32-.11-1.07,3.58-1.8,7.39-.77,11.06,0,.14.27.15.28,0C107,348.82,106.8,345.22,107.63,341.58Z" style="fill:#263238"></path><path d="M123.7,333.3a9.45,9.45,0,0,0-1.68,6.09c0,.14.22.22.26.06.47-2.05,1.26-3.92,1.89-5.92A.26.26,0,0,0,123.7,333.3Z" style="fill:#263238"></path><path d="M48.57,384.64c1.86,5.92,6.29,14.1,13.31,14.17,4.55,0,9.13-.5,13.69-.56,4.89-.08,9.78-.07,14.66.22.4,0-.59-14.62-12.33-21.76-3.28-2-7.31-2.63-11-3.43a50.73,50.73,0,0,0-13-1.36c-2.7.1-4.94.68-5.9,3.44S47.67,381.83,48.57,384.64Z" style="fill:#FFC727"></path><path d="M53.62,377.23c2.85.73,5.73,1.58,8.59,2.49a28.71,28.71,0,0,0-2.37-2.31c-1.23-1-2.58-1.84-3.9-2.73-.11-.08,0-.29.1-.24A16.12,16.12,0,0,1,63,380c3.57,1.15,7.1,2.42,10.51,3.82a39.33,39.33,0,0,1,6.72,3.54,27.27,27.27,0,0,0-2.43-4.23c-1.56-2-3.67-3.15-5.71-4.58a.18.18,0,0,1,.19-.31,16.7,16.7,0,0,1,9.15,9.92,39.45,39.45,0,0,1,6.66,6.05c7.77,8.82,13.88,20.56,13.9,32.54,0,.28-.45.36-.51.07A66.37,66.37,0,0,0,86.63,395c-.56-.65-1.13-1.26-1.71-1.86a52.71,52.71,0,0,0-6.41-.48c-2.5,0-5,.37-7.47.57-4.1.33-8.63.38-12.33-1.68-.16-.09-.05-.37.13-.31,8.24,3,16.89-.8,25.15,1a38.71,38.71,0,0,0-12.18-7.86l-.76-.3c-5.29.63-10.87,2-16,.29a.12.12,0,1,1,.06-.24c5,1.24,9.75-.32,14.66-.57-5.34-2.08-10.79-3.74-16.16-5.81C53.14,377.52,53.13,377.11,53.62,377.23Z" style="fill:#263238"></path><path d="M51.28,382.44A71.24,71.24,0,0,0,59,383a.06.06,0,0,1,0,.11,15.88,15.88,0,0,1-7.77-.5C51.1,382.6,51.16,382.42,51.28,382.44Z" style="fill:#263238"></path><path d="M68.67,377.36A12.8,12.8,0,0,1,72.48,380c.13.12,0,.36-.2.25-.64-.47-1.31-.91-2-1.35a17,17,0,0,1-1.85-1.17C68.27,377.6,68.46,377.29,68.67,377.36Z" style="fill:#263238"></path><path d="M110.12,396.42c-.09.19.19.38.3.17h0a.26.26,0,0,0,.18.12A118.82,118.82,0,0,0,125,399.2c3.88.35,8.36.56,11.76-1.69,4.6-3.05,7.63-11.21,5.14-16.4-2.95-6.16-11.82-2.81-16.27-.63A32.68,32.68,0,0,0,110.12,396.42Z" style="fill:#FFC727"></path><path d="M106.67,399.27a45.45,45.45,0,0,1,8.57-6.52,29.31,29.31,0,0,1,8.68-8.85c.17-.12.31.15.16.27a39.23,39.23,0,0,0-7.32,7.7A80,80,0,0,1,127.5,387a14.33,14.33,0,0,1,5.77-5.78s.11,0,.06.08a23.7,23.7,0,0,0-5.21,5.47c2.19-.82,4.39-1.58,6.59-2.31.2-.06.28.24.09.31-3.92,1.53-7.93,3.15-11.82,5a45.49,45.49,0,0,0,14.31,0c.13,0,.19.17.06.2a28.19,28.19,0,0,1-15.19.23,70.28,70.28,0,0,0-7.2,4,17.7,17.7,0,0,1,5.82.47A44.1,44.1,0,0,0,131,395.82c.13,0,.17.21,0,.23-5.93,1-11.54-1.67-17.43-1a43.58,43.58,0,0,0-15.06,17.61c-2.47,5-3.82,10.38-5.82,15.58a.19.19,0,0,1-.36-.1C94.08,417.91,99.19,406.58,106.67,399.27Z" style="fill:#263238"></path><path d="M124.57,385.19a6.93,6.93,0,0,1,1.52-1.85,6.08,6.08,0,0,1,1.76-1.31c.05,0,.09.06.05.1-.48.55-1.16,1-1.69,1.49s-1,1.15-1.5,1.67C124.64,385.37,124.53,385.28,124.57,385.19Z" style="fill:#263238"></path><path d="M134.36,388.37c.88-.22,1.81-.2,2.71-.38a27.17,27.17,0,0,0,2.62-.79c.12,0,.18.13.08.19a8.69,8.69,0,0,1-5.41,1.26A.15.15,0,0,1,134.36,388.37Z" style="fill:#263238"></path><polygon points="82.22 415.52 83 424.37 85.64 454.24 109.03 454.24 112.34 424.37 113.31 415.52 82.22 415.52" style="fill:#37474f"></polygon><polygon points="82.22 415.52 83 424.37 112.34 424.37 113.31 415.52 82.22 415.52" style="fill:#263238"></polygon><rect x="79.9" y="413.11" width="35.73" height="7.18" transform="translate(195.53 833.4) rotate(180)" style="fill:#37474f"></rect></g><g id="freepik--Shelf--inject-5"><rect x="329.64" y="289.26" width="101.68" height="164.98" transform="translate(760.97 743.5) rotate(180)" style="fill:#37474f"></rect><rect x="431.33" y="289.26" width="21.23" height="164.98" style="fill:#455a64"></rect><rect x="334.14" y="410.95" width="92.7" height="38.01" style="fill:#455a64"></rect><path d="M367.28,411c0,3.27,5.92,5.92,13.21,5.92s13.2-2.65,13.2-5.92Z" style="fill:#37474f"></path><rect x="334.14" y="372.14" width="92.7" height="38.01" style="fill:#455a64"></rect><path d="M367.28,372.14c0,3.28,5.92,5.93,13.21,5.93s13.2-2.65,13.2-5.93Z" style="fill:#37474f"></path><rect x="334.14" y="333.34" width="92.7" height="38.01" style="fill:#455a64"></rect><path d="M367.28,333.34c0,3.27,5.92,5.92,13.21,5.92s13.2-2.65,13.2-5.92Z" style="fill:#37474f"></path><rect x="334.14" y="294.53" width="92.7" height="38.01" style="fill:#455a64"></rect><path d="M367.28,294.53c0,3.28,5.92,5.93,13.21,5.93s13.2-2.65,13.2-5.93Z" style="fill:#37474f"></path></g><g id="freepik--character-2--inject-5"><path d="M284.44,100.42c3.88-1.33,14.44.36,18.46,5.29s4.7,13.55,3,14.59-9.32,1.24-14.84-1S282.52,101.07,284.44,100.42Z" style="fill:#263238"></path><path d="M284.43,100.44c-.14,0-.18-.23,0-.25,3.48-.48,7.34.27,10.77.86a20.26,20.26,0,0,1,8,2.66,9.37,9.37,0,0,1,4.19,6.67,19.27,19.27,0,0,1-.76,9.71c0,.09-.19.08-.17,0,.95-6,1.55-13.23-4.66-16.54C296.48,100.72,290.17,101,284.43,100.44Z" style="fill:#263238"></path><path d="M305.19,118.85c3.53.06,13.32,5.67,15.58,12.12s-2,16.83-3.63,17.74-10-4.58-13.07-9c-2-2.93-1.11-6.71-.75-10.4C303.84,123.89,304.64,118.84,305.19,118.85Z" style="fill:#263238"></path><path d="M301.89,139.15c-1.79-6.63,1.28-13.74,2.89-20.09,0-.07.13,0,.12,0-.61,6-3.54,11.64-2.95,17.76a11.22,11.22,0,0,0,5.26,8.94c2.8,1.64,6.16,2.16,9.28,2.88.21.05.11.36-.09.32C310.19,147.69,303.74,146,301.89,139.15Z" style="fill:#263238"></path><path d="M306,119.39a.15.15,0,0,1,.09-.29c5.21,1.79,11.56,4.54,14.77,9.25,3.48,5.11,1.24,11.12-.76,16.31a.05.05,0,1,1-.1,0c2-5.26,3.92-11.74.07-16.66C316.76,123.73,310.94,121.16,306,119.39Z" style="fill:#263238"></path><path d="M316.59,147.08c2.21,1.44,5.21,5.76,5.52,10.51.54,8.13,3.71,6.86,12.23,9.85,7.21,2.53,8,10.95,3.61,14.64,0,0,2.79-4.87-1.94-7.86-5.65-3.57-19.86,1.33-25.81-7.75C302.5,154.73,316.59,147.08,316.59,147.08Z" style="fill:#263238"></path><path d="M319.36,151.09c-.08-.12.12-.27.21-.15a11.7,11.7,0,0,1,2.06,3.72c.58,1.76.43,3.6.88,5.39,1.16,4.54,6.47,4.91,10.28,5.57,5.12.88,8.95,4.43,8.72,9.88a.06.06,0,0,1-.12,0,9.22,9.22,0,0,0-4.69-8.32c-2.88-1.57-6.34-1.23-9.39-2.3-2.09-.72-4.13-1.84-4.91-4a17.55,17.55,0,0,1-.59-3.75A12.87,12.87,0,0,0,319.36,151.09Z" style="fill:#263238"></path><path d="M315.14,147.92c.05,0,.11.05.07.09-3.21,2.59-6.58,5.17-7.84,9.3-1.35,4.44.53,9.21,3.82,12.3,3.68,3.46,8.1,2.42,12.64,2,3.29-.31,6.61-.36,9.67,1.05.09,0,0,.2-.08.17-5-1.69-9.78-.64-14.87-.33-4.15.26-7.22-1.48-9.54-4.91C303.91,160,308.25,152.36,315.14,147.92Z" style="fill:#263238"></path><path d="M287.08,96.43a1.39,1.39,0,0,1,2.35,1.5A1.39,1.39,0,0,1,287.08,96.43Z" style="fill:#FFC727"></path><path d="M286.26,98.9a1.4,1.4,0,0,1,2.36,1.5A1.4,1.4,0,0,1,286.26,98.9Z" style="fill:#FFC727"></path><path d="M285,101.21a1.4,1.4,0,0,1,2.35,1.51A1.4,1.4,0,0,1,285,101.21Z" style="fill:#FFC727"></path><path d="M283.54,103.28a1.4,1.4,0,0,1,2.35,1.51C285,106.32,282.59,104.81,283.54,103.28Z" style="fill:#FFC727"></path><path d="M281.68,105.11a1.39,1.39,0,0,1,2.35,1.5A1.39,1.39,0,0,1,281.68,105.11Z" style="fill:#FFC727"></path><path d="M279.59,106.52A1.4,1.4,0,0,1,282,108,1.4,1.4,0,0,1,279.59,106.52Z" style="fill:#FFC727"></path><path d="M213.88,453.36c2.45.79,72.39,0,75-1.73,1-.65,1.49-10.84,1.71-23.17.05-2.67.09-5.42.1-8.21.15-18.13-.12-37.38-.12-37.38l-46.78.4,1.41,37.37.3,8.21s-26.64,12.28-29.34,14.48S211.43,452.57,213.88,453.36Z" style="fill:#f7a9a0"></path><path d="M213.88,453.36c2.45.79,72.39,0,75-1.73,1.22-.79,1.68-15.67,1.81-31.38l-45.49.39.3,8.21s-26.64,12.28-29.34,14.48S211.43,452.57,213.88,453.36Z" style="fill:#ebebeb"></path><path d="M213.88,453.36c2.45.79,72.39,0,75-1.73,1-.65,1.49-10.84,1.71-23.17l-45.09.39s-26.64,12.28-29.34,14.48S211.43,452.57,213.88,453.36Z" style="fill:#FFC727"></path><path d="M214.85,450.55c11.72-.42,59-1,70.65-.55.1,0,.1.07,0,.08-11.6.67-58.92.89-70.65.67C214.61,450.74,214.6,450.56,214.85,450.55Z" style="fill:#263238"></path><path d="M220.67,440.76a9.37,9.37,0,0,1,7,2.78,9.09,9.09,0,0,1,2.69,6.23c0,.07-.13.07-.14,0a10.87,10.87,0,0,0-9.59-8.86A.08.08,0,1,1,220.67,440.76Z" style="fill:#263238"></path><path d="M241,430.07c4.7-.12,10.16,1.47,13.12,5.27.11.15-.1.31-.24.24a65,65,0,0,0-12.95-4.94A.29.29,0,0,1,241,430.07Z" style="fill:#263238"></path><path d="M237.4,431.52c4.69-.12,10.15,1.47,13.11,5.28.11.15-.1.31-.24.24a64.77,64.77,0,0,0-13-4.94A.3.3,0,0,1,237.4,431.52Z" style="fill:#263238"></path><path d="M233.79,433c4.69-.12,10.15,1.48,13.11,5.28.12.15-.09.31-.23.24a65,65,0,0,0-12.95-4.94A.3.3,0,0,1,233.79,433Z" style="fill:#263238"></path><path d="M230.19,434.43c4.69-.12,10.15,1.47,13.11,5.28.11.14-.1.3-.24.23A65,65,0,0,0,230.11,435,.3.3,0,0,1,230.19,434.43Z" style="fill:#263238"></path><path d="M282.39,438.9c5.26,0,5.34,8.14.07,8.18S277.12,439,282.39,438.9Z" style="fill:#263238"></path><path d="M236.24,424.48c2.57,3.23,6.45,5.25,9.82,7.52a.57.57,0,0,0,.84-.39.13.13,0,0,0,.15-.14,24.67,24.67,0,0,0-4.41-12c-1.48-2-4.5-3.91-6.85-1.92S234.74,422.59,236.24,424.48Zm-.26-3.89c.41-5.11,5.06-1.24,6.1.3a28.27,28.27,0,0,1,1.75,3.14,72.13,72.13,0,0,1,2.72,6.93c-1.58-1.22-3.26-2.29-4.89-3.45C239.72,426.13,235.76,423.41,236,420.59Z" style="fill:#263238"></path><path d="M263.68,428.29c-.41-3.06-3.91-3.68-6.38-3.18A24.71,24.71,0,0,0,246,431a.13.13,0,0,0,0,.2.57.57,0,0,0,.36.85c4,.58,8.25,1.69,12.32,1C261.11,432.69,264.06,431.18,263.68,428.29Zm-11,3.4c-2-.24-3.94-.57-5.94-.73,2.21-1.14,4.35-2.38,6.67-3.3a27.38,27.38,0,0,1,3.41-1.16c1.8-.44,7.85-.19,4.72,3.88C259.8,432.62,255,432,252.67,431.69Z" style="fill:#263238"></path><path d="M305,181s-10.51,118.37-12.23,127.4c-.4,2.06-.64,13.25-.8,27.63-.37,31.38-.15,65.89-.15,65.89H242.42s1.47-76,3.65-94S262.23,181,262.23,181Z" style="fill:#263238"></path><path d="M244.65,393.3c7.71-.16,5.49-.23,13.2-.3,3.77,0,28.55-.25,32.08.33.07,0,.07.15,0,.16-3.53.58-28.31.37-32.08.33-7.71-.08-5.49-.14-13.2-.3A.11.11,0,0,1,244.65,393.3Z" style="fill:#37474f"></path><path d="M282.42,359.32q.07-10.74.16-21.48c.05-6.94,0-13.88.37-20.81.67-14,3.51-27.83,5.54-41.71s3.71-27.81,5.24-41.75c1.72-15.65,3.23-31.31,4.84-47,0-.11.18-.1.17,0-2.33,28-4.92,55.9-8.79,83.69q-1.45,10.36-3.16,20.69c-1.15,7-2.3,13.95-2.85,21s-.62,13.82-.69,20.74q-.12,10.74-.22,21.47c-.15,15.9-.3,18.29-.46,34.19a.24.24,0,0,1-.48,0C282.2,374.18,282.31,373.5,282.42,359.32Z" style="fill:#37474f"></path><path d="M315.39,181s-20.92,118.37-22.64,127.4c-.4,2.06-.64,13.25-.8,27.63v0L268.4,181Z" style="fill:#37474f"></path><path d="M331.79,458.57c2.52-.53,62.79-36,64.24-38.83.55-1.06-4.11-10.14-10-20.95-1.29-2.33-2.63-4.74-4-7.17-8.89-15.81-18.7-32.37-18.7-32.37l-40.38,23.62,19.81,31.72,4.34,7s-17,23.91-18.25,27.16S329.27,459.11,331.79,458.57Z" style="fill:#f7a9a0"></path><path d="M331.79,458.57c2.52-.53,62.79-36,64.24-38.83.66-1.29-6.35-14.43-14-28.12l-39.27,23,4.34,7s-17,23.91-18.25,27.16S329.27,459.11,331.79,458.57Z" style="fill:#ebebeb"></path><path d="M331.79,458.57c2.52-.53,62.79-36,64.24-38.83.55-1.06-4.11-10.14-10-20.95l-38.93,22.77s-17,23.91-18.25,27.16S329.27,459.11,331.79,458.57Z" style="fill:#FFC727"></path><path d="M331.24,455.65c9.95-6.19,50.7-30.25,61-35.62.09,0,.12,0,0,.06-9.73,6.36-50.67,30.09-61,35.73C331.12,455.94,331,455.78,331.24,455.65Z" style="fill:#263238"></path><path d="M331.41,444.26a9.49,9.49,0,0,1,7.5-1.09,9.11,9.11,0,0,1,5.43,4.07c0,.06-.08.13-.12.07a10.9,10.9,0,0,0-12.74-2.92A.07.07,0,0,1,331.41,444.26Z" style="fill:#263238"></path><path d="M343.73,424.87c4-2.44,9.54-3.77,14-1.94.18.07.07.31-.08.32A64.77,64.77,0,0,0,344,425.41.3.3,0,0,1,343.73,424.87Z" style="fill:#263238"></path><path d="M341.33,427.93c4-2.44,9.54-3.77,14-1.95.17.07.07.32-.09.33a64.87,64.87,0,0,0-13.69,2.16A.29.29,0,0,1,341.33,427.93Z" style="fill:#263238"></path><path d="M338.92,431c4-2.44,9.54-3.77,14-1.94.17.07.07.31-.08.32a64.77,64.77,0,0,0-13.69,2.16A.3.3,0,0,1,338.92,431Z" style="fill:#263238"></path><path d="M336.52,434c4-2.44,9.54-3.77,14-2,.17.07.07.32-.09.33a64.77,64.77,0,0,0-13.69,2.16A.29.29,0,0,1,336.52,434Z" style="fill:#263238"></path><path d="M384,412c4.54-2.66,8.68,4.4,4.13,7.06S379.48,414.61,384,412Z" style="fill:#263238"></path><path d="M336.82,422.39c3.84,1.53,8.21,1.35,12.26,1.64a.57.57,0,0,0,.54-.75.12.12,0,0,0,.05-.19,24.54,24.54,0,0,0-9.76-8.18c-2.3-1-5.85-1.16-6.9,1.74S334.58,421.5,336.82,422.39Zm-2.16-3.24c-2.19-4.64,3.77-3.59,5.44-2.77a26.72,26.72,0,0,1,3.08,1.85,74.38,74.38,0,0,1,5.81,4.65c-2-.26-4-.36-6-.55C340.66,422.1,335.87,421.71,334.66,419.15Z" style="fill:#263238"></path><path d="M362.52,412.05c-1.87-2.45-5.22-1.25-7.11.42a24.63,24.63,0,0,0-6.86,10.73.13.13,0,0,0,.12.16c0,.35.34.72.73.56,3.78-1.5,8-2.63,11.2-5.25C362.47,417.15,364.29,414.37,362.52,412.05Zm-7.86,8.43c-1.84.78-3.7,1.47-5.51,2.32a73.13,73.13,0,0,1,4.14-6.18,26.56,26.56,0,0,1,2.38-2.7c1.34-1.28,6.71-4.07,6,1C361.31,417.73,356.85,419.54,354.66,420.48Z" style="fill:#263238"></path><path d="M333.2,404.63l42.45-26.23s-40.84-62.1-41.09-68.75c-.37-9.9-5.11-50.72-9.09-83.78,0,0,7.55-17.89-6.59-44.93H262.19s3.8,25.73,10.3,42a75,75,0,0,1,12.61,5.75s5.64,73.7,5.85,82.89C291.37,329.8,333.2,404.63,333.2,404.63Z" style="fill:#263238"></path><path d="M330.43,394.18c6.53-4.09,4.6-3,11.17-7,3.22-2,24.37-14.88,27.69-16.19.08,0,.15.09.09.14-2.73,2.31-24.1,14.85-27.36,16.75-6.65,3.9-4.78,2.71-11.48,6.53C330.42,394.45,330.31,394.26,330.43,394.18Z" style="fill:#37474f"></path><path d="M270.34,221.86a93.74,93.74,0,0,1,14.76,6.87.17.17,0,0,1-.14.31c-5-2.14-10-4.18-14.89-6.59A.32.32,0,0,1,270.34,221.86Z" style="fill:#37474f"></path><path d="M277.29,213.65c-.49-3-.89-5.94-1.14-8.93a80.75,80.75,0,0,1,.18-16.74.14.14,0,0,1,.28,0A153.94,153.94,0,0,0,278,211.11c.55,3.68,2.41,9.22-1.44,9.79s-6.46-8.71-6.94-11.25a84.53,84.53,0,0,1-.83-21.9c0-.17.32-.21.32,0a164.85,164.85,0,0,0,.83,16.6c.23,2.56,2.29,16.72,6.73,15.68.74-.17,1.12-.9,1.24-2a17.92,17.92,0,0,0-.59-4.34" style="fill:#37474f"></path><path d="M276.52,220.39a23.12,23.12,0,0,1,1,2.94,6.87,6.87,0,0,1,.42,2.41.17.17,0,0,1-.31.06,8.47,8.47,0,0,1-1-2.34c-.34-.91-.7-1.81-1-2.73A.5.5,0,0,1,276.52,220.39Z" style="fill:#37474f"></path><path d="M312.22,184.51a51.65,51.65,0,0,1,4.45,9.27,59.62,59.62,0,0,1,2.75,9.93,53.63,53.63,0,0,1,.92,10.28,53,53,0,0,1-1.11,10.27v-.11l3.91,38.59L327,301.33l1,9.64.14,1.18a3.93,3.93,0,0,0,.38,1c.34.71.72,1.42,1.11,2.12.77,1.42,1.56,2.82,2.36,4.22,3.22,5.6,6.52,11.16,9.8,16.73l19.84,33.32c-6.93-10.92-13.8-21.87-20.52-32.91-3.38-5.51-6.73-11.05-10-16.65-.81-1.4-1.61-2.8-2.39-4.23-.39-.71-.78-1.42-1.14-2.16a4.51,4.51,0,0,1-.48-1.28l-.14-1.22-1-9.65c-1.33-12.86-2.53-25.73-3.77-38.6l-1.84-19.3-1.77-19.31v-.11A52.31,52.31,0,0,0,319.75,214a56.23,56.23,0,0,0-.74-10.2,59.75,59.75,0,0,0-2.53-9.93A52.46,52.46,0,0,0,312.22,184.51Z" style="fill:#37474f"></path><path d="M262.19,180.94s-16.06,82.61-19.77,114.27c0,0,19.26,9.2,33.14,10.81s54.87-8.48,54.87-8.48L314.13,181Z" style="fill:#37474f"></path><path d="M278.34,131c-3.41,10.17-20.43,47.71-31.51,49.75-7.86,1.45-27.72-6.11-34.46-9.52-3.84-1.93,2.1-25.81,7-24.17,5.67,1.86,18.71,7.22,22.47,6.62,2-.32,12.56-12.36,27.62-28.53C277.26,116.83,281.27,122.22,278.34,131Z" style="fill:#f7a9a0"></path><path d="M217,172.15c-1.69,0-9.93-1.62-15.54-6.09-1.23-4.25-2.5-12.32-3.41-14.49-.59-2.58-3.33-7.77-3.57-7.67-.45.19-2,.86-4,1.51-2.63.87-6,1.73-8.31,1.45a3,3,0,0,1-2.66-1.61c-.75-1.77,3.06-3.58,7.38-6.12,5.89-3.46,13.31-7.4,16.78-6.17,5.12,1.8,9.94,8.42,11.58,10.24,3.19,3.59,8.73,6.45,8.73,6.45C225.68,162.78,218.21,172.16,217,172.15Z" style="fill:#f7a9a0"></path><polygon points="202.62 142.26 203.34 144.97 183.71 150.64 182.74 146.94 202.62 142.26" style="fill:#FFC727"></polygon><polygon points="182.74 146.94 183.71 150.64 178.81 152.45 177.59 147.76 182.74 146.94" style="fill:#ebebeb"></polygon><path d="M171.47,147.08c1.2-.45,6.12.68,6.12.68l1.23,4.69s-3.73,3.4-5,3.6-1.85-.7-2.74-4.08S170.27,147.53,171.47,147.08Z" style="fill:#263238"></path><path d="M206.58,168.59c-1.81-.73-6-2.05-15.44-10.75-2.33-2.14-10.59-6-6-8.49s12.13,4.62,13,3.5a1.78,1.78,0,0,0,0-1.28C199,153.74,205.35,164.34,206.58,168.59Z" style="fill:#f7a9a0"></path><path d="M246.81,147.52,272.94,153s6.62-15.67,8-26c1.05-7.88-3.29-9.06-7.53-5.91C259.28,131.61,246.81,147.52,246.81,147.52Z" style="fill:#FFC727"></path><path d="M272.93,148.6a178.26,178.26,0,0,0-22.08-4.78s-.09.16,0,.17c5.94,1.65,18,4.07,22.06,4.86C273,148.86,273,148.63,272.93,148.6Z" style="fill:#263238"></path><path d="M280.94,127c-1.38,10.33-8,26-8,26l-20.16-4.26,25.57-29.17C280.32,120.12,281.56,122.44,280.94,127Z" style="opacity:0.1"></path><path d="M262.23,181l-.84-13s-8.41-7.14-5.28-15.81c1.57-4.38,13.12-26.15,19.85-32,6.31-5.48,14.76-2.28,18.29,2.64,8.9,12.4,18.68,23,24.63,58.15Z" style="fill:#FFC727"></path><path d="M255.36,155.05c-.47,8.1,6,12.91,6,12.91l.84,13,56.66,0s.45-3.36-.26-4.81c-1.1.11-15-4-19.6-7.54-4.32-3.34-12.41-33.47-12.41-33.47l-22.28-1.31C260.24,140.66,255.62,150.66,255.36,155.05Z" style="fill:#37474f"></path><polygon points="266.42 133.97 276.33 119.32 274.8 119.9 264.29 133.81 266.42 133.97" style="fill:#37474f"></polygon><path d="M283.23,137.39a1,1,0,1,0,1-1A1,1,0,0,0,283.23,137.39Z" style="fill:#FFC727"></path><path d="M264,135.07a.85.85,0,1,0,1.49.77.86.86,0,1,0-1.49-.77Z" style="fill:#FFC727"></path><path d="M313.66,182.26c-4.29.3-8.57.47-12.86.6s-8.58.18-12.87.23-8.58,0-12.86-.17-8.58-.35-12.85-.81c4.28.12,8.57.16,12.86.17s8.57,0,12.85,0l12.86,0C305.08,182.22,309.37,182.22,313.66,182.26Z" style="fill:#263238"></path><path d="M312.49,178.15c-4.2.29-8.41.45-12.62.58s-8.42.17-12.63.21-8.42-.05-12.63-.2-8.42-.35-12.61-.81c4.21.12,8.41.16,12.62.18s8.41,0,12.62,0l12.62,0C304.07,178.1,308.28,178.09,312.49,178.15Z" style="fill:#263238"></path><path d="M309.27,178.23a3.23,3.23,0,0,1,1,1.89,3,3,0,0,1-.4,2.15c0-.37,0-.71,0-1.05a6.65,6.65,0,0,0-.11-1A14.73,14.73,0,0,0,309.27,178.23Z" style="fill:#263238"></path><path d="M308.15,178.19a3.2,3.2,0,0,1,1,1.89,2.92,2.92,0,0,1-.41,2.15c0-.38.05-.71,0-1.06a6.66,6.66,0,0,0-.11-1A14.35,14.35,0,0,0,308.15,178.19Z" style="fill:#263238"></path><path d="M294.6,178.46a3.19,3.19,0,0,1,1,1.89,2.94,2.94,0,0,1-.41,2.16,9.55,9.55,0,0,0,0-1.06,8.26,8.26,0,0,0-.1-1A13.47,13.47,0,0,0,294.6,178.46Z" style="fill:#263238"></path><path d="M293.48,178.42a3.19,3.19,0,0,1,1,1.89,3,3,0,0,1-.41,2.15,9.33,9.33,0,0,0,0-1.05,8.26,8.26,0,0,0-.1-1A13.47,13.47,0,0,0,293.48,178.42Z" style="fill:#263238"></path><path d="M279,182.69a3.23,3.23,0,0,1-1-1.89,2.91,2.91,0,0,1,.4-2.15c0,.37,0,.71,0,1a6.65,6.65,0,0,0,.11,1A14.73,14.73,0,0,0,279,182.69Z" style="fill:#263238"></path><path d="M280.11,182.73a3.2,3.2,0,0,1-1-1.89,2.92,2.92,0,0,1,.41-2.15c0,.38-.05.71,0,1.06a6.66,6.66,0,0,0,.11,1A14.35,14.35,0,0,0,280.11,182.73Z" style="fill:#263238"></path><path d="M267.81,182.26a3.23,3.23,0,0,1-1-1.89,3,3,0,0,1,.4-2.16c0,.38,0,.72,0,1.06a6.65,6.65,0,0,0,.11,1A14.73,14.73,0,0,0,267.81,182.26Z" style="fill:#263238"></path><path d="M268.94,182.3a3.19,3.19,0,0,1-1-1.89,2.92,2.92,0,0,1,.41-2.15c0,.37-.05.71,0,1.06a6.66,6.66,0,0,0,.11,1A13.14,13.14,0,0,0,268.94,182.3Z" style="fill:#263238"></path><path d="M279.36,164.86a47.45,47.45,0,0,0-8.47.75c-1.4.28-2.78.63-4.16,1-.69.2-1.38.37-2.08.53a7.74,7.74,0,0,1-2.18.26c-.07,0-.08.11,0,.12a11.86,11.86,0,0,0,2.06.18,11.37,11.37,0,0,0,2-.24c1.42-.26,2.83-.6,4.25-.88,2.86-.57,5.71-1.14,8.59-1.46C279.49,165.13,279.49,164.85,279.36,164.86Z" style="fill:#263238"></path><path d="M285.89,168.68A49.93,49.93,0,0,0,279,167.5a31.14,31.14,0,0,0-3.48-.13c-.56,0-1.12,0-1.67,0s-1.23.16-1.84.17c-.07,0-.08.13,0,.13.58,0,1.15.13,1.73.17l1.73.14,3.46.29c2.32.16,4.62.35,6.93.61C286,168.93,286,168.71,285.89,168.68Z" style="fill:#263238"></path><path d="M296.88,121.77c20.44,13.67,38,28.79,39.16,33.8,3.37,15-11.65,22.42-13.12,22-6.43-1.84-23.7-29.31-32.06-45.73C284,118.27,291.51,118.17,296.88,121.77Z" style="fill:#f7a9a0"></path><polygon points="346.07 127.1 378.58 127.1 382.29 102.86 349.78 102.86 346.07 127.1" style="fill:#263238"></polygon><rect x="332.2" y="123.29" width="38.11" height="3.81" transform="translate(702.51 250.39) rotate(180)" style="fill:#263238"></rect><path d="M321.56,176.25c-3-6.28,2.56-15.89,16.09-39.92,1.87-3.33,24.07,10.88,22.45,14.63-1.93,4.46-13.92,19.57-17.5,22.26C332.67,180.68,323.27,179.83,321.56,176.25Z" style="fill:#f7a9a0"></path><path d="M358.54,153.19s9.38-5.61,13.4-10.09a38.62,38.62,0,0,0,8.28-16.53c1.51-6.57.62-23.52-4.31-24.11-4.46-.54-2.67,16.73-2.67,16.73s1.08-17.91-4.4-17.57-2.28,20.27-2.28,20.27.71-18.43-4.9-17.18c-4.23.94-2.34,19.16-2.34,19.16s.49-15.85-3.9-15.07c-4.86.86-4.17,17.79-4.17,17.79-10.84,3.86-14.43,10.14-16.44,14.9C334.32,142.65,358.54,153.19,358.54,153.19Z" style="fill:#f7a9a0"></path><path d="M373.26,125.41c.2-2.1.42-4.22.44-6.33s0-4.22-.22-6.33a36.27,36.27,0,0,0-1.48-8.11c1.08,4.79,1.14,12.34,1.12,14.46s.07,4.21.06,6.32C373.18,125.47,373.25,125.46,373.26,125.41Z" style="fill:#263238"></path><path d="M365.64,125.49c.14-2.69.38-5.36.41-8.06s-.19-5.23-.35-7.92c0-.2-.12-.13-.11.08.05,2.69-.11,5.17-.09,7.86s.15,5.37.07,8C365.57,125.54,365.63,125.53,365.64,125.49Z" style="fill:#263238"></path><path d="M359.11,126.74a60.19,60.19,0,0,0-.32-12.37c0-.21-.15-.1-.14.11.19,4.11.36,7.34.31,12.24C359,126.8,359.1,126.82,359.11,126.74Z" style="fill:#263238"></path><path d="M326,140.22l-24.39,10.87s-9.75-13.94-13.26-23.75c-2.69-7.48,1.31-9.55,6.12-7.36C310.49,127.27,326,140.22,326,140.22Z" style="fill:#FFC727"></path><path d="M300.71,146.75a175.15,175.15,0,0,1,20.59-9.3s.11.14.07.16c-5.47,2.85-16.76,7.75-20.56,9.37C300.74,147,300.64,146.79,300.71,146.75Z" style="fill:#263238"></path><path d="M301.38,151.24c-1.25-1.78-2.35-3.69-3.46-5.56-.42-.46-.84-.92-1.24-1.4a12.89,12.89,0,0,1-1.35-2s0-.06.05,0c.24.3.46.63.69.94l.72.91q.36.48.75.93c-1.09-1.83-2.13-3.7-3.08-5.61,0-.05,0-.1.07-.05,1.33,1.85,2.57,3.77,3.75,5.72s2.35,3.8,3.37,5.77c.35-.13.69-.26,1.06-.36a.08.08,0,0,1,.07.15c-.36.24-.73.43-1.11.64A.21.21,0,0,1,301.38,151.24Z" style="fill:#263238"></path><polygon points="286.61 135.12 284.58 135 289.21 118.62 290.6 119.02 286.61 135.12" style="fill:#37474f"></polygon><path d="M289.14,118.6s-4.61,12.33-5.86,13.69-12.57.54-12.92-.4,5.27-11,5.27-11a24.63,24.63,0,0,1,7.89-3C287.37,117.36,289.14,118.6,289.14,118.6Z" style="fill:#f7a9a0"></path><path d="M288.56,119.56c-.05,1.18-4.09,9.7-10.54,9.94-3.74.14-1.94-7.53-1.94-7.53l-4.22-9.85,11.36-10.59S288.58,119.05,288.56,119.56Z" style="fill:#f7a9a0"></path><path d="M285.19,108.08a20.45,20.45,0,0,1-9.34,13.34l-4-9.29,11.36-10.6Z" style="fill:#263238"></path><path d="M256,99.29c1.36,17.49,12,18.65,15.76,18.35,3.42-.27,15-1.62,15.51-19.16s-8.11-22.43-16-22.23S254.62,81.79,256,99.29Z" style="fill:#f7a9a0"></path><path d="M258.67,97.18c.4-.12.74-.3,1.13-.45a2,2,0,0,0,1.05-.69.61.61,0,0,0-.13-.75,1.57,1.57,0,0,0-1.57-.09,2.25,2.25,0,0,0-1.26,1A.66.66,0,0,0,258.67,97.18Z" style="fill:#263238"></path><path d="M270,95c-.42,0-.8,0-1.22,0a1.93,1.93,0,0,1-1.22-.28.62.62,0,0,1-.14-.75,1.57,1.57,0,0,1,1.44-.62,2.29,2.29,0,0,1,1.55.54A.67.67,0,0,1,270,95Z" style="fill:#263238"></path><path d="M268.31,99.83s.1,0,.11.09c.14,1.19.5,2.53,1.63,2.75,0,0,0,.07,0,.07C268.72,102.76,268.25,101,268.31,99.83Z" style="fill:#263238"></path><path d="M269.17,98.44c1.88-.44,2.61,3.35.87,3.75S267.6,98.8,269.17,98.44Z" style="fill:#263238"></path><path d="M270,98.5c.37.15.77.46,1.17.42s.74-.5,1-.94c0,0,.06,0,.07,0a1.4,1.4,0,0,1-.74,1.78c-.69.23-1.32-.31-1.64-1C269.73,98.66,269.81,98.43,270,98.5Z" style="fill:#263238"></path><path d="M261.71,101.08s-.08.08-.07.12c.28,1.17.39,2.55-.59,3.15,0,0,0,.08,0,.06C262.33,104,262.16,102.14,261.71,101.08Z" style="fill:#263238"></path><path d="M260.42,100.07c-1.91.24-1.3,4,.47,3.83S262,99.87,260.42,100.07Z" style="fill:#263238"></path><path d="M259.67,100.45c-.27.25-.51.66-.87.74s-.78-.26-1.11-.62c0,0-.06,0-.06.06.1.73.46,1.45,1.19,1.47s1-.67,1.08-1.43C259.91,100.54,259.77,100.35,259.67,100.45Z" style="fill:#263238"></path><path d="M270.19,109.5c-.2.34-.37.79-.78.94a3.09,3.09,0,0,1-1.32.06s-.06,0,0,.07a1.62,1.62,0,0,0,1.64.22,1.28,1.28,0,0,0,.62-1.27C270.32,109.45,270.22,109.45,270.19,109.5Z" style="fill:#263238"></path><path d="M264.4,106.33s.14,1.8.31,2.62c0,.08.23.07.51,0h0a4,4,0,0,0,3.49-2.28c0-.09-.09-.15-.15-.09a6,6,0,0,1-3.35,1.8c-.11-.22-.13-3.09-.26-3.07a7.43,7.43,0,0,0-1.78.83c-.39-3.74-.18-7.5-.62-11.22a.12.12,0,0,0-.23,0,60.36,60.36,0,0,0,.16,12.1C262.54,107.52,264.1,106.54,264.4,106.33Z" style="fill:#263238"></path><path d="M265.68,108.42a4.29,4.29,0,0,0,1.92,1,1.94,1.94,0,0,0,1.18-.13c.8-.36.69-1.13.42-1.77a4.65,4.65,0,0,0-.55-.94A5.59,5.59,0,0,1,265.68,108.42Z" style="fill:#263238"></path><path d="M267.6,109.44a1.94,1.94,0,0,0,1.18-.13c.8-.36.69-1.13.42-1.77A2,2,0,0,0,267.6,109.44Z" style="fill:#ff9abb"></path><path d="M286.6,98.75c-3.09,1.22-5.78-5.88-5.78-5.88s-14.18,1.18-18.16-9.59A19.37,19.37,0,0,1,255.83,96s-2.63-12.26,6.38-17.08c0,0,10.83-7.4,20,.35S288.67,97.93,286.6,98.75Z" style="fill:#263238"></path><path d="M262.4,82.47a12.38,12.38,0,0,0,1.9,4.9A13,13,0,0,0,268,91.18a10.21,10.21,0,0,0,1.15.68l.59.33.61.26c.42.15.83.33,1.25.47s.86.23,1.29.33l.65.14.66.08,1.31.15c.88,0,1.76,0,2.63,0-.87-.14-1.74-.19-2.59-.34L274.3,93l-.63-.13-.61-.2-1.22-.38c-.4-.16-.78-.34-1.17-.51l-.58-.26-.55-.31a11,11,0,0,1-1.09-.67,16.19,16.19,0,0,1-6.05-8Z" style="fill:#263238"></path><path d="M284.28,98.87s2.89-6,5.56-5.09,1.13,9.24-1.57,10.79a3,3,0,0,1-4.18-.92Z" style="fill:#f7a9a0"></path><path d="M289.34,96.15a0,0,0,0,1,0,.07c-1.89,1.15-2.64,3.2-3.06,5.26a1.64,1.64,0,0,1,2.34-.84.06.06,0,0,1,0,.12,1.82,1.82,0,0,0-1.88,1,8.33,8.33,0,0,0-.68,1.76c-.07.19-.41.15-.38-.07a.09.09,0,0,0,0,0C285.22,100.8,286.62,96.86,289.34,96.15Z" style="fill:#263238"></path></g><g id="freepik--character-1--inject-5"><path d="M126.42,175.63c-.79,10.76-3.56,23.53.71,33.86,3.36,8.1,10.73,13.69,18.42,17.37,16.92,8.08,40.89,9.76,53.39-6.91,5-6.66,6.22-20.79-1.58-26.2-4-2.77-8.85-3.53-13.43-4.91a19.69,19.69,0,0,1-13-11.1c-5.18-11.2-3.85-19.26-4.56-31.24a8.5,8.5,0,0,0-2.73-6.35,15.25,15.25,0,0,0-7-4.14,15.15,15.15,0,0,0-7.23-1.41c-5.3.4-10.52,5.14-14.7,8.06s-6.23,6.12-6.7,11.31C127.4,161.18,127,168.41,126.42,175.63Z" style="fill:#263238"></path><path d="M125,180.67c1.36-9.82,2.92-19.59,4.41-29.38a.05.05,0,0,1,.1,0c-1,8.09-1.88,16.18-3,24.27-1.08,7.91-2.74,16-3.12,24-.85,17.93,17.38,25.76,32.66,25.32.69,0,.65,1.09-.06,1.09-13.42,0-29.3-5.08-32.93-19.78C121.05,198.13,123.83,188.69,125,180.67Z" style="fill:#263238"></path><path d="M165.54,145.54a.15.15,0,0,1,.3,0c.16,9.88-.57,21.41,4.8,30.16a25,25,0,0,0,11.15,9.78c3.66,1.61,7.59,1.86,11.44,2.73,15.06,3.41,14.61,23.86,3.38,31.52-.24.16-.52-.24-.29-.41,7.92-6,10.8-17.09,4.72-25.51-4.88-6.76-14.67-4.94-21.48-8.71C165.45,177.3,164.83,159.85,165.54,145.54Z" style="fill:#263238"></path><path d="M238.29,453.12c-2.53.87-77.15.89-79.91-.87-.33-.19-.31-9.27-.53-16.18-.34-10.55,13.8-57.56,13.8-57.56l46.29,2.25L205,428.14s10.67,4.72,19.47,8.86l0,0c5.42,2.54,10.13,4.86,11.22,5.71C238.56,445,240.82,452.27,238.29,453.12Z" style="fill:#d3766a"></path><path d="M238.29,453.12c-2.53.87-77.15.89-79.91-.87-.33-.19-.49-6.93-.53-16.18,18.49,3.83,67.72,9.72,69.1,5.83.55-1.54-.65-3.28-2.43-4.88,5.42,2.54,10.13,4.86,11.22,5.71C238.56,445,240.82,452.27,238.29,453.12Z" style="fill:#263238"></path><path d="M127.75,294.82c9.13,9.09,48.28,27.82,51.26,34.4,2.62,5.79-12.91,68.66-12.91,68.66l46.31,3.2s22.8-68.1,16-90.63c-6.36-20.9-78-61.81-78-61.81H121.68S109.76,276.94,127.75,294.82Z" style="fill:#d3766a"></path><path d="M218.74,296.92c-16.49,5.91-39.12,15.55-55.24,20.69-12.95-7.86-30.09-17.16-35.74-22.79-18-17.88-6.09-46.18-6.09-46.18h28.75S197.58,275.58,218.74,296.92Z" style="fill:#263238"></path><path d="M328.07,429.94c-2.63.51-76.57-9.48-79.08-11.59-.3-.24.46-6.94,1.65-16.11l-13.1-55.85,48.7,6,15.32,48a118,118,0,0,0,15,11.76s0,0,0,0c5,3.24,9.39,6.17,10.35,7.16C329.43,421.9,330.69,429.43,328.07,429.94Z" style="fill:#d3766a"></path><path d="M328.07,429.94c-2.63.51-76.57-9.48-79.08-11.59-.3-.24.46-6.94,1.65-16.11,17.81,6.28,65.81,18.73,67.7,15.06.75-1.46-.2-3.35-1.76-5.16,5,3.24,9.39,6.17,10.35,7.16C329.43,421.9,330.69,429.43,328.07,429.94Z" style="fill:#263238"></path><path d="M296.43,384.3l-48,8.41L228.53,332c.59-20.73-2.46-28.24-14.11-31.85-19.85-6.15-68.36,16.56-90.32,1.32-17.83-12.37-3.6-52.82-3.6-52.82h50.6a49.57,49.57,0,0,1,6,7.78s66.23-.66,80.52,17.46C276.74,298.15,296.43,384.3,296.43,384.3Z" style="fill:#d3766a"></path><path d="M191.12,300.45a77.07,77.07,0,0,1,15.61-1.52,36.59,36.59,0,0,1,7.86.85,17.93,17.93,0,0,1,3.8,1.29,20,20,0,0,1,3.44,2.05,15.43,15.43,0,0,1,4.83,6.36,28.6,28.6,0,0,1,1.94,7.68,83.94,83.94,0,0,1,.21,15.69c0-2.62-.06-5.23-.22-7.83a68.92,68.92,0,0,0-.75-7.75,31.27,31.27,0,0,0-2-7.43,14.43,14.43,0,0,0-4.6-5.92,18.29,18.29,0,0,0-6.85-3.26,41.69,41.69,0,0,0-7.67-1,75,75,0,0,0-7.79.08C196.31,299.9,193.72,300.14,191.12,300.45Z" style="fill:#263238"></path><path d="M117.81,248.63s-11.34,36.63,2.68,50.12,30.52,11.16,69.81,2.73c0,0,14.46-22.76,24.22-31.38,8.44-7.46,14.75-9,14.75-9s-13.56-4.51-52-5.2a32.48,32.48,0,0,0-6.2-7.23Z" style="fill:#FFC727"></path><path d="M114.68,262.59c0-.1,0-.19,0-.29,2.37-.72,4.88-2,5.52-4.66a3.21,3.21,0,0,0-1-3.27,4.76,4.76,0,0,0-2.71-1c0-.09,0-.18.08-.27a4.88,4.88,0,0,1,2.81,1A3.73,3.73,0,0,1,120,259C118.79,261,116.79,261.94,114.68,262.59Zm23.69,5.5a5.69,5.69,0,0,0-1.88-5.19,6.32,6.32,0,0,0-5.22-1c-4.84.93-7.22,5.42-9.53,9.29-1.77,3-4.66,6.77-8.22,7.53a1.93,1.93,0,0,0,0,.24,9.74,9.74,0,0,0,4.43-2.38c3.78-3.37,5.13-8.57,8.78-12a8.93,8.93,0,0,1,6.34-2.52,5.07,5.07,0,0,1,4.93,3.95,8.15,8.15,0,0,1-2,6.73,21.6,21.6,0,0,1-6.26,4.48c-4.17,2.29-8.21,5-10.61,9.22a12.57,12.57,0,0,0-1.38,9.07c.15.22.29.44.44.65a11.89,11.89,0,0,1,.47-8.18c2-4.66,6.21-7.75,10.53-10.12C133.21,275.6,137.79,273.09,138.37,268.09ZM175,252.66a7.56,7.56,0,0,0-1.94,1c-4.35,3.07-4.39,8.64-4.46,13.45a15.27,15.27,0,0,1-1.14,6.55c-.92,1.89-2.81,3.37-5,2.67s-3.63-3.27-3.9-5.5c-.36-2.92.52-5.83.41-8.75a7.17,7.17,0,0,0-2.3-5.39c-1.78-1.42-4.09-.92-5.84.27-3.89,2.64-5.47,7.53-5.95,12-.32,2.95-.26,5.92-.42,8.87a32.93,32.93,0,0,1-1.41,8.25,28.28,28.28,0,0,1-8.59,13.13,13.69,13.69,0,0,1-7.3,3.33,8.22,8.22,0,0,1-2.22-.1l.48.33a9.78,9.78,0,0,0,3.8-.36c4.73-1.39,8.4-5.4,10.94-9.46a30.92,30.92,0,0,0,4.56-14.59c.35-5.55-.16-11.4,2.38-16.54a10.71,10.71,0,0,1,5.23-5.38,4.13,4.13,0,0,1,3.89.25,5.54,5.54,0,0,1,2,2.85c1.68,4.86-1.77,10.37,1.42,14.91a4.73,4.73,0,0,0,4.51,2.26,5,5,0,0,0,3.59-3.16,15,15,0,0,0,1.06-5.93,32.63,32.63,0,0,1,.74-8.49,9.34,9.34,0,0,1,4.43-5.8,6,6,0,0,1,1.13-.47Zm14.36,3.56,0,0c-1.84,1.63-4.12,1.22-5.94-.19l-.08-.07h-.41a6.83,6.83,0,0,0,2.56,1.46,4.38,4.38,0,0,0,4.26-1.21Zm-53.88-4.08a5.94,5.94,0,0,0,5.39,1.09,4.15,4.15,0,0,0,2.49-4.34,2.28,2.28,0,0,0,0-.26H143c.11,1.75-.27,3.5-2.1,4.28-2.23,1-4.83-.29-6.34-1.95a16.15,16.15,0,0,1-1.7-2.33h-.33A11.78,11.78,0,0,0,135.46,252.14Zm42.88,23.41c1.75,1.43,4.16,1.26,6.21.7,4.94-1.34,9.55-4.25,13.54-7.38a68.15,68.15,0,0,0,5.84-5.16c1.82-1.78,3.53-3.66,5.38-5.42l.6-.56-.35-.05c-2.19,2-4.2,4.29-6.33,6.34a56.4,56.4,0,0,1-12.8,9.56c-3.81,2-12.05,5.64-13.57-1-1.27-5.54,4.94-9.4,9.29-11,4.6-1.72,9.55-2.26,14.11-4.09.44-.17.87-.36,1.31-.56l-.53,0-.29.13c-4.55,1.92-9.51,2.49-14.15,4.13-4.1,1.45-9.08,4.21-10,8.88A5.74,5.74,0,0,0,178.34,275.55Zm-17.49,19.21a9.45,9.45,0,0,0-2.64-6.16,5.09,5.09,0,0,0-5.66-1c-3.83,1.71-5.28,6.12-6,9.91-.71,3.59-1,7.49-2.69,10.81h.23a30.26,30.26,0,0,0,2.23-8.34c.72-4.14,1.54-9,5.26-11.57a5.22,5.22,0,0,1,4.07-1,5.54,5.54,0,0,1,2.92,1.85c1.93,2.2,2.17,5.17,2.21,8a34.32,34.32,0,0,0,.69,7.77,18.79,18.79,0,0,0,.58,1.94l.24,0a20.21,20.21,0,0,1-.95-3.75C160.85,300.37,161.12,297.56,160.85,294.76Zm25.31-7.06a12.24,12.24,0,0,0-5-3.92,8.82,8.82,0,0,0-10.62,2.89,7.87,7.87,0,0,0-1.6,5.51,8,8,0,0,0,2.32,4.48c2.57,2.68,6.25,4.13,8.62,7l.24-.05c-1.61-2-4.05-3.43-6.09-4.91a13.63,13.63,0,0,1-4-4,6.83,6.83,0,0,1-.23-6.34,9,9,0,0,1,4.82-4.59,8.81,8.81,0,0,1,6.83.35,12.23,12.23,0,0,1,5.29,4.78c1.44,2.36,1.78,5.05,2.36,7.69a15.1,15.1,0,0,0,1.58,4.33,1.93,1.93,0,0,0,.13-.21,19.94,19.94,0,0,1-1.9-6.17A16.1,16.1,0,0,0,186.16,287.7Zm18.37-15.28a10.88,10.88,0,0,0-5.52,4.09,6.9,6.9,0,0,0-.79,6.3,9.47,9.47,0,0,0,2.58,3.37l.15-.2c-.28-.25-.56-.53-.83-.81a6.52,6.52,0,0,1-1.82-6.52,9.27,9.27,0,0,1,5.46-5.66c3.08-1.35,6.41-1.66,9.74-2l.28-.26A36.15,36.15,0,0,0,204.53,272.42Z" style="fill:#fff"></path><path d="M171.1,248.63H117.81s6.18-38.39,22.36-60.75c5.32-7.35,11.7-7,17.14-3.2s16.91,23.1,18.2,30.14A11.74,11.74,0,0,1,171,226.21Z" style="fill:#FFC727"></path><path d="M130.24,244.43a43.51,43.51,0,0,1,2.64,4.2h-.33c-.46-.77-.89-1.54-1.34-2.28a15.22,15.22,0,0,0-4.54-4.84,16.66,16.66,0,0,0-6.91-2.57l.06-.23a16.63,16.63,0,0,1,6.15,2A14.74,14.74,0,0,1,130.24,244.43Zm7.52-27.07a21.84,21.84,0,0,0,8.16.7,15,15,0,0,0,7-2.88,9.22,9.22,0,0,0,3.67-5.37,5.74,5.74,0,0,0-1.75-5.31c-2-1.7-4.43-.91-6.63-.17-2.81.94-5.56,2-8.3,3.14-3,1.21-7.63,2.83-10.75,1.12l-.12.3c.22.11.44.21.67.3a10.31,10.31,0,0,0,6,0,51.2,51.2,0,0,0,6.87-2.48c1.43-.56,2.87-1.1,4.32-1.61a23.12,23.12,0,0,1,4.37-1.31,4.62,4.62,0,0,1,5.09,4.42c.26,2.59-1.44,5-3.36,6.5a14.7,14.7,0,0,1-7.88,3.13,25.85,25.85,0,0,1-8.46-1.1c-3.36-.84-6.8-1.68-10.17-1.13l-.12.34C130.1,215.3,134,216.46,137.76,217.36Zm16.92-31.68a18.1,18.1,0,0,1,2.86-.83l-.23-.17-.17-.12a29.17,29.17,0,0,0-5.16,1.79,31.24,31.24,0,0,1-7.81,2.51,10.34,10.34,0,0,1-4.44-.36l-.18.26.35.12C145,190.47,150.05,187.36,154.68,185.68Zm8.43,5.46,0,.08a9.15,9.15,0,0,1-5.51,4.24,17.43,17.43,0,0,1-8.61,0c-4-.81-8.31-2.27-12.46-1.93-.07.12-.14.24-.2.36,4.66-.48,9.48,1.45,14,2.17s9.88.15,12.66-4a5.8,5.8,0,0,0,.36-.59Zm-4.24,25.71a18.59,18.59,0,0,0,2.22-7.16c.38-2.81.74-5.56,2.24-8a12.21,12.21,0,0,1,4-4.13,1.76,1.76,0,0,0-.14-.23,12.71,12.71,0,0,0-4.64,5.09c-1.26,2.45-1.51,5.16-1.89,7.84a17.53,17.53,0,0,1-2.61,7.28A21.08,21.08,0,0,1,152.7,223c-4.59,3.31-10.14,5-15.5,6.58-4.85,1.41-10.69,2.51-14.88-.8l-.09.33a10.08,10.08,0,0,0,1.93,1.18,13.75,13.75,0,0,0,7.51.86,49.18,49.18,0,0,0,8.18-2,66.23,66.23,0,0,0,7.8-2.86C152.14,224.2,156.35,221.19,158.87,216.85Zm8.53,29.31a12.87,12.87,0,0,1-7.1-2.88c-1.83-1.54-3.23-3.5-5-5.14a9.11,9.11,0,0,0-5.17-2.72,8.35,8.35,0,0,0-5.1,1.1,6.33,6.33,0,0,0-3,3.91c-.49,2.12.27,4.32.72,6.37a15.19,15.19,0,0,1,.28,1.83h.3c-.18-2.21-1.08-4.31-1.16-6.53a5.8,5.8,0,0,1,2.71-5.12,8,8,0,0,1,5.74-1.19c2.33.44,4.11,2.11,5.67,3.79a28.85,28.85,0,0,0,5,4.85,13.52,13.52,0,0,0,6.53,2.07,14.65,14.65,0,0,0,3.25-.16V246A14.19,14.19,0,0,1,167.4,246.16Zm8-31.67c-2.68,3.69-7.13,5.39-10.84,7.87a12.13,12.13,0,0,0-4.48,4.57c-.71,1.49-1.08,3.51,0,4.92,1.35,1.73,3.92,1.41,5.74.76a19.58,19.58,0,0,0,5.16-3.07v-.3c-2.29,1.73-4.6,3.41-7.53,3.59a3.43,3.43,0,0,1-3.39-1.53,4.21,4.21,0,0,1-.16-3.16c.66-2.33,2.51-4,4.44-5.31,3.74-2.6,8.33-4.26,11.12-8C175.49,214.71,175.47,214.6,175.44,214.49Z" style="fill:#fff"></path><path d="M156.3,222.5a32.93,32.93,0,0,1,6.55,1c1.08.31,2.14.68,3.21,1.08.53.21,1.06.38,1.59.56a5.61,5.61,0,0,0,1.7.32c.05,0,.05.1,0,.11a8.44,8.44,0,0,1-1.59.08,8.58,8.58,0,0,1-1.56-.3c-1.09-.29-2.18-.66-3.27-1-2.21-.63-4.42-1.25-6.64-1.65C156.19,222.74,156.19,222.5,156.3,222.5Z" style="fill:#263238"></path><path d="M151.17,225.64a33.2,33.2,0,0,1,5.34-.77,22.14,22.14,0,0,1,2.7,0c.43,0,.86.06,1.29.11s.95.19,1.43.23c0,0,0,.11,0,.11-.44,0-.89.07-1.34.08l-1.34,0c-.9,0-1.79.09-2.69.11-1.8,0-3.59.12-5.38.26C151.08,225.86,151.08,225.66,151.17,225.64Z" style="fill:#263238"></path><path d="M147.12,185.3c.32,1.15,6.17,8.48,11.48,8,1.72-.15,1.32-9.63,1.32-9.63l.13-.7,1.8-9.89-11.8-6.93-1.7-.91s-.31,2.73-.67,6.15c0,.15,0,.31-.05.48s-.06.38-.07.56c-.06.51-.12,1-.17,1.54s-.08.78-.1,1.2-.06.82-.1,1.24A65.66,65.66,0,0,0,147.12,185.3Z" style="fill:#d3766a"></path><path d="M147.68,171.42A20.16,20.16,0,0,0,160.05,183l1.8-9.89-11.8-6.93-1.7-.91S148,168,147.68,171.42Z" style="fill:#263238"></path><path d="M171.65,153.78c6,16.59-3.29,22-6.87,23.33-3.25,1.16-14.46,4.72-22.12-11.17s-1.83-23.91,5.46-27S165.68,137.19,171.65,153.78Z" style="fill:#d3766a"></path><path d="M168.28,151.76c-.41.08-.8.1-1.21.14a2,2,0,0,1-1.26-.09.64.64,0,0,1-.25-.73,1.55,1.55,0,0,1,1.34-.83,2.3,2.3,0,0,1,1.62.31A.67.67,0,0,1,168.28,151.76Z" style="fill:#263238"></path><path d="M156.8,155.57c.38-.18.69-.41,1-.62a2,2,0,0,0,1-.84.64.64,0,0,0-.24-.72,1.56,1.56,0,0,0-1.57.14,2.32,2.32,0,0,0-1.11,1.22A.68.68,0,0,0,156.8,155.57Z" style="fill:#263238"></path><path d="M163.68,168.22c.35.19.73.49,1.16.41A3.11,3.11,0,0,0,166,168s.09,0,.07,0a1.61,1.61,0,0,1-1.3,1,1.29,1.29,0,0,1-1.19-.78C163.54,168.24,163.63,168.19,163.68,168.22Z" style="fill:#263238"></path><path d="M167.08,162.52s.8,1.62,1.07,2.43c0,.07-.16.17-.43.28h0a4,4,0,0,1-4.18-.2.09.09,0,0,1,.08-.15,6,6,0,0,0,3.82-.16c0-.24-1.46-2.73-1.34-2.78a7.09,7.09,0,0,1,2-.19c-1.56-3.44-3.67-6.59-5.17-10a.11.11,0,0,1,.19-.12,60.55,60.55,0,0,1,6,10.56C169.3,162.61,167.45,162.55,167.08,162.52Z" style="fill:#263238"></path><path d="M160.75,158.8s-.06.09,0,.13c.46,1,.81,2.31,0,3,0,0,0,.08,0,.06C161.83,161.39,161.35,159.72,160.75,158.8Z" style="fill:#263238"></path><path d="M158.48,159.19a3.83,3.83,0,0,0,.24.59,1.57,1.57,0,0,1-.08.49.88.88,0,0,1-.69.64c-.68.1-1.14-.51-1.36-1.17,0-.05,0-.09,0-.07.36.28.78.55,1.15.39s.47-.57.67-.85h0Z" style="fill:#263238"></path><path d="M161.24,159.93a1.81,1.81,0,0,1,0,.92,1.27,1.27,0,0,1-.71.71,1.07,1.07,0,0,1-1-.11,2,2,0,0,1-.62-.66,4.52,4.52,0,0,1-.23-.5,2.51,2.51,0,0,1-.17-1.11,3.65,3.65,0,0,0,.34.75,4.33,4.33,0,0,0,.41.61c.32.4.73.67,1.08.51s.54-.56.52-1.07a8.9,8.9,0,0,0-.28-1.55A3.52,3.52,0,0,1,161.24,159.93Z" style="fill:#263238"></path><path d="M167.16,156.45s.1,0,.12.05c.43,1.05,1.1,2.18,2.2,2.1,0,0,.05.05,0,.06C168.28,159,167.4,157.51,167.16,156.45Z" style="fill:#263238"></path><path d="M169,155.07a2.75,2.75,0,0,1,.25.59,2.19,2.19,0,0,0,.42.28.89.89,0,0,0,.93-.06c.55-.42.43-1.18.1-1.8,0,0-.06-.05-.07,0,0,.46-.15.94-.52,1.1s-.73-.06-1.08-.1c0,0,0,0,0,0Z" style="fill:#263238"></path><path d="M167.63,157.58a1.66,1.66,0,0,0,.7.6,1.24,1.24,0,0,0,1,0,1.13,1.13,0,0,0,.61-.8,2,2,0,0,0-.05-.91,3.17,3.17,0,0,0-.2-.51,2.33,2.33,0,0,0-.69-.89,3.29,3.29,0,0,1,.31.76,4,4,0,0,1,.16.73c.06.5,0,1-.38,1.12a1,1,0,0,1-1.13-.36A8,8,0,0,1,167,156,3.56,3.56,0,0,0,167.63,157.58Z" style="fill:#263238"></path><path d="M144.35,166.78c1.74-.82,4.41-7.57,1.1-16.22,0,0,2.44,8,2.31,9.33s1.48-3.79-1.08-10.81a30.37,30.37,0,0,0,8.59.84c3.64-.4,5.63-1.23,5.77-1.56s-5.29.08-7.2-.9c0,0,10.33.56,14.47-.75.48-.15-2.8-9.92-10.63-11.48s-15.9,6.76-17.52,10.37c0,0-2.92,1.69-4.45,7.63S142.48,167.67,144.35,166.78Z" style="fill:#263238"></path><path d="M144.83,172.07a3.42,3.42,0,0,0,.85,0,2.53,2.53,0,0,0,.81-.19,2.37,2.37,0,0,0,.89-.58,2.84,2.84,0,0,0,.52-.66,3.61,3.61,0,0,0,.39-1.13l-2.15-4.31s-5.14-4.33-7.19-2.36S141.72,171.77,144.83,172.07Z" style="fill:#d3766a"></path><path d="M140.38,164.79a0,0,0,0,0,0,.08c2.21.28,3.74,1.84,5,3.56a1.65,1.65,0,0,0-2.5.2c0,.05,0,.11.08.09a1.83,1.83,0,0,1,2.12.1,8.93,8.93,0,0,1,1.35,1.33c.14.15.44,0,.32-.21l0,0C146.08,167.35,143.17,164.32,140.38,164.79Z" style="fill:#263238"></path><path d="M144.88,171.29a.82.82,0,0,0,1.09.37.81.81,0,0,0-.72-1.46A.82.82,0,0,0,144.88,171.29Z" style="fill:#fff"></path><path d="M142.94,170.53a.58.58,0,1,0,.26-.78A.59.59,0,0,0,142.94,170.53Z" style="fill:#fff"></path><path d="M136.91,192.86C122,219.09,113.46,249,118.17,253.34c6.41,5.9,34,4.44,55.56,1.94,4.15-.48,8.72-32.69,4.24-32.58-8.22.21-32.19,5.37-32.72,5.43-1.16.14.59-10.63,2-28.38C148.63,183.27,141.55,184.67,136.91,192.86Z" style="fill:#d3766a"></path><path d="M172,223.13s12.59-.89,20.79-1c4.57-.08,12.43.49,15.82,2,5.06,2.21,24.83,14.72,21.91,19.58-2.65,4.39-18.28-8.5-18.28-8.5s16.92,11.62,12.75,16.33-19.88-12.21-19.88-12.21,17.12,12.33,12.05,16.5c-3.82,3.16-18.92-11.36-18.92-11.36s14.64,10.7,10.84,14.11c-4.19,3.78-19-8.75-19-8.75-11.11,7.06-19.29,5.88-25,4.34C163.75,253.75,172,223.13,172,223.13Z" style="fill:#d3766a"></path><path d="M206.68,230.76c2,1.3,4.11,2.59,6,4.06s3.78,3,5.55,4.65a40,40,0,0,1,6.27,7c-3.55-4.34-10.33-9.71-12.24-11.18s-3.75-3-5.66-4.5C206.57,230.8,206.63,230.73,206.68,230.76Z" style="fill:#263238"></path><path d="M201.25,237.58c2.53,1.76,5.1,3.42,7.55,5.3s5.77,4.6,8.08,6.63c.18.15,0,.47-.16.32-2.38-1.93-5.91-4.56-8.31-6.47s-4.74-3.91-7.21-5.72C201.16,237.61,201.21,237.55,201.25,237.58Z" style="fill:#263238"></path><path d="M195.53,242.59a68.77,68.77,0,0,1,10.94,9c.17.16,0,.19-.21,0-3.58-3.06-6.36-5.48-10.81-8.89C195.38,242.68,195.45,242.54,195.53,242.59Z" style="fill:#263238"></path><path d="M90.31,204.38c1.54-1.11,28.43-4.63,28.43-4.63l4.65,105.32h76.79l-3.31,16.15H106Z" style="fill:#37474f"></path><rect x="147.48" y="321.22" width="9.41" height="6.68" style="fill:#a6a6a6"></rect><rect x="143.68" y="327.9" width="17.01" height="69.96" style="fill:#c7c7c7"></rect><rect x="136.2" y="361.44" width="7.48" height="3.16" style="fill:#a6a6a6"></rect><rect x="120.99" y="359.77" width="15.21" height="6.49" style="fill:#c7c7c7"></rect><rect x="140.96" y="397.86" width="21.93" height="19.78" style="fill:#c7c7c7"></rect><polygon points="154.41 462.34 149.84 462.34 147.28 406.52 156.97 406.52 154.41 462.34" style="fill:#a6a6a6"></polygon><polygon points="92.17 453.4 88.11 450.29 140.96 403.58 140.96 417.64 92.17 453.4" style="fill:#a6a6a6"></polygon><polygon points="211.67 453.4 215.74 450.29 162.89 403.58 162.89 417.64 211.67 453.4" style="fill:#a6a6a6"></polygon><rect x="143.68" y="392.67" width="17.01" height="5.19" style="fill:#a6a6a6"></rect><polygon points="121.26 256.83 202.41 250.19 182.7 305.07 174.98 305.07 184.47 261.56 121.57 263.88 121.26 256.83" style="fill:#a6a6a6"></polygon></g></svg>